<svg width="82" height="31" viewBox="0 0 82 31" fill="none" xmlns="http://www.w3.org/2000/svg">
<path d="M4.85979 0.381958C5.68779 0.381958 6.39579 0.501958 6.98379 0.741958C7.57179 0.969958 8.14179 1.32996 8.69379 1.82196L7.75779 2.86596C7.28979 2.49396 6.82779 2.22396 6.37179 2.05596C5.92779 1.87596 5.44779 1.78596 4.93179 1.78596C4.28379 1.78596 3.74979 1.93596 3.32979 2.23596C2.90979 2.53596 2.69979 2.97396 2.69979 3.54996C2.69979 3.90996 2.77179 4.21596 2.91579 4.46796C3.05979 4.70796 3.32379 4.92996 3.70779 5.13396C4.10379 5.33796 4.67379 5.55396 5.41779 5.78196C6.19779 6.02196 6.84579 6.27996 7.36179 6.55596C7.87779 6.83196 8.29179 7.21596 8.60379 7.70796C8.92779 8.18796 9.08979 8.79996 9.08979 9.54396C9.08979 10.264 8.90979 10.9 8.54979 11.452C8.20179 12.004 7.69179 12.436 7.01979 12.748C6.35979 13.06 5.57379 13.216 4.66179 13.216C2.94579 13.216 1.54179 12.682 0.449789 11.614L1.38579 10.57C1.88979 10.978 2.39979 11.29 2.91579 11.506C3.43179 11.71 4.00779 11.812 4.64379 11.812C5.41179 11.812 6.04779 11.626 6.55179 11.254C7.05579 10.87 7.30779 10.318 7.30779 9.59796C7.30779 9.18996 7.22979 8.85396 7.07379 8.58996C6.91779 8.31396 6.64779 8.06796 6.26379 7.85196C5.89179 7.63596 5.34579 7.41996 4.62579 7.20396C3.35379 6.81996 2.42379 6.35796 1.83579 5.81796C1.24779 5.27796 0.953789 4.54596 0.953789 3.62196C0.953789 2.99796 1.11579 2.43996 1.43979 1.94796C1.77579 1.45596 2.23779 1.07196 2.82579 0.795958C3.42579 0.519958 4.10379 0.381958 4.85979 0.381958Z" fill="white"/>
<path d="M20.3301 0.597958L20.1501 2.05596H16.7121V13H15.0021V2.05596H11.4741V0.597958H20.3301Z" fill="white"/>
<path d="M30.8169 0.597958L30.6189 1.96596H25.8129V6.01596H29.9889V7.38396H25.8129V11.632H30.9609V13H24.1029V0.597958H30.8169Z" fill="white"/>
<path d="M41.0077 6.44796C41.8597 6.59196 42.5497 6.89196 43.0777 7.34796C43.6057 7.80396 43.8697 8.51196 43.8697 9.47196C43.8697 11.824 42.2317 13 38.9557 13H35.5357V0.597958H38.4697C40.0417 0.597958 41.2417 0.855958 42.0697 1.37196C42.9097 1.88796 43.3297 2.67396 43.3297 3.72996C43.3297 4.44996 43.1017 5.04996 42.6457 5.52996C42.2017 6.00996 41.6557 6.31596 41.0077 6.44796ZM37.2457 1.94796V5.85396H39.1177C39.8377 5.85396 40.4257 5.67996 40.8817 5.33196C41.3497 4.98396 41.5837 4.49196 41.5837 3.85596C41.5837 3.13596 41.3377 2.63796 40.8457 2.36196C40.3657 2.08596 39.6337 1.94796 38.6497 1.94796H37.2457ZM38.9557 11.632C39.9637 11.632 40.7317 11.482 41.2597 11.182C41.7997 10.882 42.0697 10.312 42.0697 9.47196C42.0697 8.65596 41.8117 8.06796 41.2957 7.70796C40.7797 7.34796 40.1077 7.16796 39.2797 7.16796H37.2457V11.632H38.9557Z" fill="white"/>
<path d="M56.9809 13H54.6949L49.6549 2.46996C49.7269 3.29796 49.7809 4.06596 49.8169 4.77396C49.8649 5.46996 49.8889 6.31596 49.8889 7.31196V13H48.2869V0.597958H50.5189L55.6129 11.146C55.5769 10.834 55.5289 10.288 55.4689 9.50796C55.4089 8.72796 55.3789 8.01396 55.3789 7.36596V0.597958H56.9809V13Z" fill="white"/>
<path d="M69.088 0.597958L68.89 1.96596H64.084V6.01596H68.26V7.38396H64.084V11.632H69.232V13H62.374V0.597958H69.088Z" fill="white"/>
<path d="M81.9068 0.597958L77.9468 13H76.1108L72.1148 0.597958H73.9508L77.0648 11.146L80.1788 0.597958H81.9068Z" fill="white"/>
<path d="M0.383789 26.712V25.776H9.09579V26.712H0.383789Z" fill="white"/>
<path d="M18.296 21.588C18.848 21.588 19.32 21.668 19.712 21.828C20.104 21.98 20.484 22.22 20.852 22.548L20.228 23.244C19.916 22.996 19.608 22.816 19.304 22.704C19.008 22.584 18.688 22.524 18.344 22.524C17.912 22.524 17.556 22.624 17.276 22.824C16.996 23.024 16.856 23.316 16.856 23.7C16.856 23.94 16.904 24.144 17 24.312C17.096 24.472 17.272 24.62 17.528 24.756C17.792 24.892 18.172 25.036 18.668 25.188C19.188 25.348 19.62 25.52 19.964 25.704C20.308 25.888 20.584 26.144 20.792 26.472C21.008 26.792 21.116 27.2 21.116 27.696C21.116 28.176 20.996 28.6 20.756 28.968C20.524 29.336 20.184 29.624 19.736 29.832C19.296 30.04 18.772 30.144 18.164 30.144C17.02 30.144 16.084 29.788 15.356 29.076L15.98 28.38C16.316 28.652 16.656 28.86 17 29.004C17.344 29.14 17.728 29.208 18.152 29.208C18.664 29.208 19.088 29.084 19.424 28.836C19.76 28.58 19.928 28.212 19.928 27.732C19.928 27.46 19.876 27.236 19.772 27.06C19.668 26.876 19.488 26.712 19.232 26.568C18.984 26.424 18.62 26.28 18.14 26.136C17.292 25.88 16.672 25.572 16.28 25.212C15.888 24.852 15.692 24.364 15.692 23.748C15.692 23.332 15.8 22.96 16.016 22.632C16.24 22.304 16.548 22.048 16.94 21.864C17.34 21.68 17.792 21.588 18.296 21.588Z" fill="white"/>
<path d="M28.6096 21.732L28.4896 22.704H26.1976V30H25.0576V22.704H22.7056V21.732H28.6096Z" fill="white"/>
<path d="M36.7888 27.348C36.7888 27.9 36.6728 28.388 36.4408 28.812C36.2168 29.228 35.8848 29.556 35.4448 29.796C35.0128 30.028 34.4928 30.144 33.8848 30.144C32.9648 30.144 32.2528 29.892 31.7488 29.388C31.2528 28.876 31.0048 28.196 31.0048 27.348V21.732H32.1448V27.264C32.1448 27.904 32.2888 28.384 32.5768 28.704C32.8648 29.024 33.3008 29.184 33.8848 29.184C34.4768 29.184 34.9168 29.028 35.2048 28.716C35.4928 28.396 35.6368 27.912 35.6368 27.264V21.732H36.7888V27.348Z" fill="white"/>
<path d="M41.9981 21.732C43.2461 21.732 44.2461 22.024 44.9981 22.608C45.7581 23.184 46.1381 24.256 46.1381 25.824C46.1381 27.352 45.7581 28.432 44.9981 29.064C44.2461 29.688 43.3301 30 42.2501 30H40.2701V21.732H41.9981ZM41.4101 22.644V29.1H42.3341C43.1021 29.1 43.7261 28.864 44.2061 28.392C44.6861 27.92 44.9261 27.064 44.9261 25.824C44.9261 24.952 44.8021 24.284 44.5541 23.82C44.3061 23.348 43.9901 23.036 43.6061 22.884C43.2221 22.724 42.7701 22.644 42.2501 22.644H41.4101Z" fill="white"/>
<path d="M50.3328 21.732V30H49.1928V21.732H50.3328Z" fill="white"/>
<path d="M56.8838 21.588C57.5798 21.588 58.1878 21.756 58.7078 22.092C59.2358 22.42 59.6438 22.904 59.9318 23.544C60.2278 24.184 60.3758 24.96 60.3758 25.872C60.3758 26.768 60.2278 27.536 59.9318 28.176C59.6438 28.816 59.2358 29.304 58.7078 29.64C58.1878 29.976 57.5798 30.144 56.8838 30.144C56.1878 30.144 55.5758 29.98 55.0478 29.652C54.5278 29.324 54.1198 28.84 53.8238 28.2C53.5358 27.56 53.3918 26.788 53.3918 25.884C53.3918 24.996 53.5358 24.228 53.8238 23.58C54.1198 22.932 54.5318 22.44 55.0598 22.104C55.5878 21.76 56.1958 21.588 56.8838 21.588ZM56.8838 22.524C56.1638 22.524 55.6038 22.796 55.2038 23.34C54.8038 23.884 54.6038 24.732 54.6038 25.884C54.6038 27.028 54.8038 27.868 55.2038 28.404C55.6118 28.94 56.1718 29.208 56.8838 29.208C58.4038 29.208 59.1638 28.096 59.1638 25.872C59.1638 23.64 58.4038 22.524 56.8838 22.524Z" fill="white"/>
</svg>
