<svg width="49" height="49" viewBox="0 0 49 49" fill="none" xmlns="http://www.w3.org/2000/svg">
<path d="M22.3655 17.3412C22.5539 17.1393 22.543 16.8229 22.3412 16.6345C22.1393 16.4461 21.8229 16.457 21.6345 16.6588L22.3655 17.3412ZM15 24.5L14.6345 24.1588L14.3161 24.5L14.6345 24.8412L15 24.5ZM21.6345 32.3412C21.8229 32.543 22.1393 32.5539 22.3412 32.3655C22.543 32.1771 22.5539 31.8607 22.3655 31.6588L21.6345 32.3412ZM21.6345 16.6588L14.6345 24.1588L15.3655 24.8412L22.3655 17.3412L21.6345 16.6588ZM14.6345 24.8412L21.6345 32.3412L22.3655 31.6588L15.3655 24.1588L14.6345 24.8412Z" fill="#73869F"/>
<rect x="15" y="25" width="1" height="20" rx="0.5" transform="rotate(-90 15 25)" fill="#73869F"/>
</svg>
