<svg width="19" height="15" viewBox="0 0 19 15" fill="none" xmlns="http://www.w3.org/2000/svg">
<path d="M7.66339 1.34116C7.85181 1.13928 7.8409 0.822889 7.63902 0.634472C7.43715 0.446055 7.12075 0.456966 6.93234 0.658841L7.66339 1.34116ZM1.2312 7.5L0.865674 7.15884L0.547258 7.5L0.865674 7.84116L1.2312 7.5ZM6.93234 14.3412C7.12075 14.543 7.43715 14.5539 7.63902 14.3655C7.8409 14.1771 7.85181 13.8607 7.66339 13.6588L6.93234 14.3412ZM6.93234 0.658841L0.865674 7.15884L1.59673 7.84116L7.66339 1.34116L6.93234 0.658841ZM0.865674 7.84116L6.93234 14.3412L7.66339 13.6588L1.59673 7.15884L0.865674 7.84116Z" fill="white"/>
<rect x="1.2312" y="7.93335" width="0.866666" height="17.3333" rx="0.433333" transform="rotate(-90 1.2312 7.93335)" fill="white"/>
</svg>
